<svg width="400" height="400" viewBox="0 0 400 400" fill="none" xmlns="http://www.w3.org/2000/svg">
<rect width="400" height="400" fill="#FFFDF3"/>
<path d="M151.426 206.418C150.5 206.983 148.7 208.454 147.68 207.449C146.659 206.445 146.776 203.861 146.849 202.47C146.993 201.416 147.188 200.374 147.432 199.348C147.614 198.299 147.804 197.204 148.008 196.235C148.372 194.522 148.62 193.167 148.62 193.14C148.839 191.445 148.321 190.368 147.454 189.875C147.352 189.821 147.111 190.18 146.929 190.162C146.231 190.096 145.532 190.267 144.907 190.656C144.283 191.045 143.757 191.637 143.387 192.369C142.884 193.4 142.163 194.495 141.74 195.284C141.244 196.182 140.749 197.132 140.282 198.057C139.816 198.981 139.553 200.111 139.007 201.017C138.46 201.923 137.855 202.739 137.287 203.592C136.718 204.444 136.15 205.332 135.53 206.131C135.567 206.077 135.385 205.233 135.385 205.135C135.385 204.686 135.326 204.238 135.385 203.771C135.385 203.17 135.603 202.587 135.654 201.977C135.756 200.658 135.953 199.286 136.07 197.949C136.268 196.603 136.349 195.234 136.31 193.867C136.233 193.304 136.047 192.772 135.766 192.317C135.486 191.863 135.12 191.498 134.699 191.256C134.635 191.209 134.567 191.17 134.495 191.14C133.904 190.771 133.236 190.63 132.579 190.736C132.426 190.79 132.251 190.736 132.149 190.835C131.733 191.077 131.624 191.893 131.332 192.315C131.041 192.737 130.735 192.799 130.531 193.14C129.802 194.307 129.109 195.473 128.402 196.648C127.695 197.823 127.149 199.133 126.427 200.281C125.815 201.25 125.166 202.192 124.532 203.134C123.898 204.076 123.024 204.776 122.346 205.682C121.668 206.588 120.998 207.476 120.276 208.311C119.601 209.096 118.869 209.805 118.09 210.428C117.725 210.724 117.485 211.325 117.077 211.495C116.668 211.666 116.8 211.316 116.603 210.867C116.049 209.602 115.466 208.355 114.876 207.117C114.285 205.879 113.644 204.677 112.973 203.529C112.412 202.542 111.778 201.618 111.18 200.676C110.583 199.734 109.992 198.765 109.337 197.877C108.681 196.989 108.112 196.28 107.405 195.455C108.251 194.755 108.863 193.93 109.672 193.212C110.481 192.494 111.523 192.082 112.347 191.346C113.17 190.61 113.739 189.444 114.533 188.655C115.327 187.865 116.224 187.255 117.026 186.493C117.827 185.73 118.789 185.183 119.584 184.402C120.378 183.622 120.976 182.527 121.77 181.711C122.565 180.895 123.381 180.177 124.161 179.37C124.941 178.562 125.72 177.898 126.478 177.109C127.236 176.319 127.892 175.431 128.665 174.624C129.437 173.817 130.217 173.135 130.939 172.3C131.66 171.466 132.316 170.578 133.001 169.708C133.686 168.838 134.459 168.048 135.086 167.124C135.712 166.2 136.208 165.132 136.798 164.164C137.389 163.195 137.906 162.181 138.431 161.149C139.06 160.048 139.629 158.897 140.136 157.704C140.558 156.463 140.871 155.17 141.069 153.847C141.352 152.549 141.463 151.204 141.397 149.864C141.28 148.516 140.91 147.22 140.319 146.078C139.69 144.978 138.874 144.059 137.928 143.386C137.047 142.587 136.061 141.98 135.013 141.592C134.186 141.335 133.342 141.167 132.491 141.09C131.638 140.997 130.781 140.976 129.926 141.027C129.073 141.09 128.242 141.449 127.404 141.61C126.566 141.772 125.691 141.834 124.868 142.05C124.044 142.265 123.162 142.462 122.331 142.749C121.501 143.037 120.597 143.099 119.773 143.431C118.95 143.763 118.184 144.328 117.375 144.705C116.566 145.082 115.772 145.522 114.97 145.925C114.052 146.392 113.134 146.822 112.23 147.37C111.326 147.917 110.379 148.267 109.482 148.823C108.586 149.379 107.748 150.016 106.866 150.617C105.984 151.218 105.022 151.568 104.147 152.16C103.273 152.752 102.398 153.344 101.545 153.954C100.693 154.564 99.9056 155.363 99.0601 156C98.2147 156.637 97.3547 157.265 96.5093 157.92C95.6638 158.575 95.1682 159.409 94.4175 160.01C93.6669 160.611 92.8579 161.104 92.1145 161.714C92.1145 161.714 92.1145 161.822 92.1145 161.849C91.7658 162.134 91.5082 162.559 91.3857 163.051C91.3857 163.275 91.2326 163.5 91.2253 163.67C91.1941 164.272 91.3028 164.873 91.5387 165.402C91.7243 165.82 91.994 166.172 92.322 166.425C92.6499 166.678 93.0252 166.823 93.4118 166.846C93.8158 166.87 94.2159 166.739 94.556 166.469C95.2193 165.958 95.9626 165.572 96.6113 165.043C97.464 164.361 98.2949 163.634 99.1549 162.961C100.015 162.289 100.889 161.661 101.757 161.015C102.624 160.369 103.506 159.732 104.388 159.113C105.27 158.494 106.057 157.651 106.946 157.049C107.835 156.448 108.746 155.874 109.65 155.309C110.554 154.744 111.552 154.412 112.47 153.856C113.389 153.3 114.263 152.663 115.196 152.16C116.129 151.658 117.179 151.155 118.17 150.68C119.161 150.204 120.13 149.585 121.143 149.173C122.156 148.76 123.242 148.599 124.277 148.276C125.312 147.953 126.384 147.863 127.44 147.63C128.57 147.283 129.72 147.046 130.88 146.921C131.663 146.991 132.438 147.147 133.198 147.388C133.971 147.49 134.716 147.796 135.385 148.285C136.682 149.325 136.798 151.128 136.478 152.833C136.323 153.902 136.079 154.948 135.749 155.955C135.266 156.867 134.735 157.739 134.16 158.566C133.694 159.463 133.388 160.494 132.863 161.338C132.338 162.181 131.558 162.764 130.982 163.562C130.407 164.361 130.006 165.357 129.401 166.101C128.796 166.846 128.045 167.429 127.419 168.165C126.792 168.9 126.318 169.959 125.647 170.695C124.977 171.43 124.226 172.04 123.541 172.758C122.856 173.476 122.193 174.22 121.501 174.929C120.808 175.638 120.167 176.409 119.467 177.109C118.767 177.809 117.9 178.203 117.2 178.903C116.501 179.603 115.787 180.249 115.08 180.922C114.373 181.594 113.739 182.375 113.024 183.039C112.31 183.703 111.567 184.322 110.838 184.977C110.109 185.631 109.533 186.385 108.826 187.013C108.119 187.641 107.42 188.116 106.705 188.727C107.055 187.569 107.478 186.511 107.828 185.353C108.178 184.196 108.557 183.066 108.936 181.908C109.315 180.751 109.555 179.558 109.912 178.401C110.269 177.243 110.561 176.068 110.918 174.911C111.275 173.754 111.53 172.552 111.895 171.403C112.332 170.031 112.689 168.604 113.126 167.223C113.564 165.841 114.081 164.531 114.497 163.105C115.298 160.414 113.097 159.929 112.31 159.875C111.853 159.807 111.391 159.93 110.998 160.225C110.476 160.546 110.045 161.052 109.759 161.679C109.147 163.625 109.14 163.625 108.528 165.572C107.915 167.519 108.156 167.635 107.544 169.591C107.179 170.73 106.72 171.816 106.363 172.955C106.006 174.095 105.882 175.342 105.532 176.49C105.182 177.638 104.432 178.589 104.074 179.737C103.717 180.886 103.404 182.034 103.054 183.182C102.704 184.331 102.515 185.542 102.165 186.681C101.815 187.82 101.596 189.211 101.254 190.359C100.397 189.82 99.5045 189.37 98.5864 189.014C97.7265 188.543 96.8304 188.179 95.9116 187.928C94.9805 187.841 94.0445 187.881 93.1203 188.045C92.2185 188.29 91.3429 188.663 90.5111 189.157C89.7217 189.45 88.9557 189.832 88.2226 190.296C87.5466 190.874 86.9104 191.519 86.3204 192.225C85.7265 192.918 85.1782 193.668 84.6805 194.468C83.9273 195.565 83.2473 196.735 82.6471 197.967C82.0349 199.223 81.1895 200.407 81.0218 201.824C80.9352 202.888 81.1077 203.959 81.5174 204.901C81.9881 205.743 82.6687 206.373 83.4561 206.696C84.4474 207.242 85.5401 207.45 86.6192 207.297C87.5221 207.327 88.4253 207.249 89.3158 207.064C90.1758 206.767 90.9046 205.96 91.7355 205.565C92.7121 205.108 93.7981 204.946 94.7528 204.399C95.7076 203.852 96.6332 202.91 97.5588 202.309C97.311 203.206 97.085 204.516 96.7571 205.655C96.4291 206.794 95.8242 207.602 95.5326 208.616C95.212 209.764 95.0371 210.894 94.8038 211.773C94.403 213.209 94.0021 214.653 93.6669 216.115C93.4045 217.246 93.3899 218.807 93.0692 220.215C92.7486 221.624 92.0197 222.978 91.7865 224.073C91.7044 225.134 91.5705 226.189 91.3857 227.231C91.1347 228.212 90.9375 229.213 90.7953 230.227H90.6496C90.4892 231.187 90.6496 232.29 90.4819 233.322C90.3143 234.354 89.8916 235.385 89.9717 236.372C90.0373 237.126 90.3726 237.198 90.8026 236.605C91.5362 235.463 92.1371 234.201 92.5882 232.856C92.9599 231.896 93.5138 231.061 93.8855 230.066C94.2572 229.07 94.6143 228.128 94.9715 227.15C95.3286 226.172 95.7003 224.952 96.072 223.875C96.4437 222.799 96.6769 221.624 97.0559 220.538C97.5806 218.887 97.9232 219.049 98.4334 217.389C98.9435 215.73 98.8925 215.712 99.3954 214.043C99.9493 212.249 99.891 212.536 100.51 210.383C100.824 209.279 100.955 207.907 101.334 206.597C101.713 205.287 102.289 204.211 102.631 203.009C103.025 201.654 103.2 200.21 103.513 199.16C104.242 199.967 104.876 200.954 105.525 201.851C106.173 202.748 106.982 203.475 107.551 204.417C108.119 205.359 108.673 206.355 109.22 207.342C109.767 208.328 110.299 209.324 110.794 210.347C111.29 211.37 111.523 212.581 111.946 213.639C112.474 214.981 113.32 216.094 114.373 216.833C115.598 217.494 116.982 217.555 118.243 217.004C119.136 216.671 119.985 216.182 120.764 215.55C121.595 214.987 122.387 214.342 123.133 213.621C123.862 212.832 124.299 211.72 124.926 210.93C125.553 210.141 126.282 209.136 126.938 208.167C127.593 207.198 128.344 206.373 128.971 205.422C129.598 204.471 130.173 203.197 130.778 202.21C130.72 203.161 130.633 204.435 130.596 205.485C130.502 206.503 130.487 207.531 130.552 208.553C130.67 209.591 130.963 210.587 131.412 211.477C131.695 211.912 132.045 212.271 132.444 212.533C132.842 212.795 133.28 212.955 133.73 213.002C134.586 213.162 135.46 212.956 136.208 212.419C137.289 211.739 138.273 210.849 139.123 209.782C139.894 208.824 140.624 207.818 141.31 206.767C141.98 205.709 142.549 204.749 143.176 203.655C143.316 204.505 143.528 205.335 143.81 206.131C143.975 207.061 144.268 207.95 144.677 208.759C145.174 209.382 145.787 209.847 146.463 210.114C146.463 210.114 147.352 210.796 147.352 210.688C147.352 210.58 147.308 210.939 147.293 210.939C148.066 211.145 148.853 210.58 149.567 210.159C150.264 209.751 150.884 209.171 151.389 208.454C151.809 207.866 152.086 207.145 152.191 206.373C152.308 205.44 151.747 206.184 151.426 206.418ZM95.4598 197.034C94.4175 197.716 93.492 198.676 92.4279 199.286C91.2998 199.936 90.1442 200.511 88.966 201.008C88.4033 201.216 87.8315 201.383 87.2533 201.51C86.9253 201.6 86.641 201.51 86.3204 201.636C86.8179 200.458 87.4191 199.351 88.1133 198.335C88.7925 197.285 89.5901 196.361 90.4819 195.589C91.647 194.687 92.9902 194.194 94.3665 194.163C95.0866 193.992 95.8223 193.944 96.553 194.02C97.2597 194.29 97.9432 194.644 98.5937 195.078C97.5952 195.814 96.4947 196.361 95.4598 197.034Z" fill="#303030"/>
<path d="M167.695 179.31C167.713 179.127 167.743 178.946 167.786 178.768C167.869 178.693 168.3 178.926 168.398 178.918C168.716 178.918 169.026 178.818 169.336 178.793C170.583 178.701 171.816 178.401 173.063 178.292C174.31 178.184 175.701 178.05 177.009 177.875C178.121 177.717 179.232 177.625 180.336 177.425C181.44 177.225 182.566 177.208 183.67 176.983C184.774 176.758 185.862 176.491 186.958 176.265C187.714 176.107 188.516 175.857 189.295 175.681C189.586 175.652 189.88 175.652 190.172 175.681C191.26 175.406 192.258 174.73 193.317 174.355C193.995 174.221 194.651 173.971 195.259 173.613C195.562 173.362 195.698 172.962 195.32 172.779C194.578 172.476 193.79 172.331 192.999 172.353C191.895 172.353 190.784 172.653 189.68 172.637C188.576 172.62 187.473 172.503 186.369 172.512C185.265 172.52 184.169 172.587 183.065 172.62C182.226 172.62 181.069 172.62 179.95 172.62C178.695 172.662 177.493 172.82 176.851 172.845C176.533 172.845 176.223 172.72 175.913 172.745C175.233 172.812 173.895 172.912 172.496 173.037C171.279 173.154 170.183 173.162 169.26 173.237C169.532 172.036 169.419 170.91 169.699 169.717C169.978 168.524 170.281 167.331 170.568 166.139C170.855 164.946 171.407 163.836 171.702 162.652C171.997 161.467 172.345 160.283 172.632 159.098C172.678 158.543 172.678 157.985 172.632 157.43C172.648 156.856 172.486 156.294 172.171 155.837C171.841 155.318 171.361 154.939 170.81 154.76C169.926 154.535 169.169 155.186 168.542 155.795C168.249 156.136 168.073 156.578 168.043 157.046C167.778 158.122 167.211 159.106 166.954 160.174L166.198 163.394C165.941 164.47 165.624 165.53 165.367 166.597C165.11 167.665 165.178 168.841 164.936 169.934C164.694 171.027 164.127 172.011 163.893 173.096C163.893 173.229 163.893 173.379 163.84 173.479C163.787 173.579 163.908 173.521 163.719 173.563C163.487 173.62 163.252 173.657 163.016 173.671C162.494 173.671 161.965 173.671 161.435 173.671C160.422 173.671 159.409 173.671 158.411 173.671C157.413 173.671 156.378 174.021 155.387 173.996C154.397 173.971 153.414 173.554 152.424 173.479C151.433 173.404 150.39 173.78 149.4 173.629C148.409 173.479 147.479 173.171 146.527 172.937C146.398 172.937 146.262 172.595 146.073 172.545C145.48 172.509 144.895 172.711 144.425 173.112C144.387 173.112 144.342 173.112 144.312 173.112C143.019 173.996 142.49 175.239 143.314 176.758C143.314 176.758 143.45 176.758 143.48 176.799C143.751 177.295 144.175 177.666 144.675 177.842C144.917 177.909 145.166 177.917 145.325 177.959C146.285 178.201 147.222 178.543 148.198 178.709C149.173 178.876 150.148 178.801 151.116 178.901C152.084 179.001 153.059 179.026 154.034 179.068C155.009 179.11 155.977 179.318 156.952 179.327C157.928 179.335 158.903 179.185 159.878 179.168C160.853 179.152 161.866 179.252 162.849 179.168C162.675 180.002 162.517 181.053 162.32 182.13C162.146 183.072 162.139 184.115 161.957 185.108C161.776 186.1 161.443 187.076 161.277 188.027C161.095 189.112 160.891 190.121 160.755 190.963C160.619 191.806 160.445 192.632 160.339 193.466C160.233 194.3 160.339 195.176 160.271 196.027C160.203 196.878 159.984 198.02 159.893 199.155C159.802 200.289 159.666 201.274 159.598 202.3C159.523 203.468 159.243 204.552 159.213 205.453C159.201 207.041 159.267 208.628 159.409 210.208C159.409 210.208 159.409 210.149 159.409 210.141C159.417 211.22 159.478 212.298 159.591 213.369C159.603 214.263 159.728 215.15 159.961 216.005C160.241 216.731 160.717 216.422 160.937 215.847C161.462 214.577 161.853 213.245 162.101 211.876C162.297 210.8 162.524 209.732 162.728 208.656C162.932 207.58 162.978 206.471 163.189 205.403C163.401 204.335 163.628 203.309 163.855 202.258C164.082 201.207 163.991 200.081 164.195 199.03C164.399 197.979 164.694 196.953 164.845 195.885C164.996 194.817 165.095 193.641 165.268 192.548C165.442 191.456 165.767 190.346 165.949 189.212C166.176 187.877 166.501 186.567 166.743 185.233C166.985 183.898 167.022 182.522 167.295 181.195C167.363 180.561 167.559 179.944 167.695 179.31Z" fill="#303030"/>
<path d="M318.471 180.951C317.48 181.037 316.534 181.558 315.551 181.714C314.568 181.871 313.54 181.55 312.549 181.636C311.341 181.749 310.148 181.888 308.94 181.931C307.731 181.975 306.523 181.984 305.315 181.931C304.107 181.879 303.131 182.018 302.043 181.931C300.955 181.845 299.874 181.836 298.801 181.628C297.813 181.316 296.849 180.91 295.919 180.413C295.619 180.3 295.341 180.074 295.041 179.952C294.741 179.831 294.561 179.77 294.291 179.649C293.028 178.974 291.651 178.635 290.261 178.659C289.758 178.72 289.293 179.084 288.797 179.163C287.89 179.193 286.988 179.344 286.111 179.614C285.271 180.027 284.478 180.554 283.747 181.185C281.837 182.719 280.389 184.904 279.604 187.435C279.192 188.664 278.939 189.956 278.854 191.271C278.791 192.399 278.857 193.531 279.049 194.639C279.161 195.785 279.414 196.908 279.799 197.972C278.891 198.302 278.006 198.883 277.113 199.274C276.22 199.665 275.266 199.829 274.381 200.229C274.516 199.161 274.704 198.093 274.824 197.008C274.944 195.923 275.049 194.847 275.161 193.762C275.274 192.677 275.161 191.575 275.214 190.49C275.266 189.405 275.582 188.337 275.627 187.252C275.672 186.167 275.627 185.074 275.627 183.989C275.627 182.253 275.356 180.282 273.69 179.779C273.473 179.718 270.944 179.874 270.644 179.857C269.453 179.77 268.259 179.788 267.071 179.909C266.154 180.023 265.244 180.206 264.347 180.456C263.426 180.621 262.515 180.862 261.623 181.176C260.773 181.621 259.955 182.144 259.176 182.739C258.337 183.233 257.538 183.814 256.79 184.475C256.119 185.238 255.52 186.082 255.004 186.992C254.398 188.148 253.955 189.408 253.691 190.724C253.338 192.009 252.843 193.328 252.978 194.674C252.978 194.96 253.27 195.212 253.323 195.489C253.367 195.67 253.39 195.857 253.39 196.045C253.39 196.236 253.458 196.305 253.33 196.444C252.853 196.826 252.351 197.165 251.829 197.46C250.855 198.152 249.795 198.667 248.685 198.987C248.362 199.092 248.017 199.361 247.747 199.04C247.477 198.718 247.634 197.824 247.642 197.39C247.609 196.097 247.659 194.803 247.792 193.519C247.965 192.33 248.265 191.176 248.475 190.004C248.685 188.832 248.993 187.678 249.225 186.532C249.317 185.978 249.265 185.405 249.077 184.885C248.889 184.365 248.572 183.92 248.167 183.607C247.386 182.999 246.551 182.489 245.676 182.088C245.33 181.897 244.723 182.166 244.347 182.088C243.792 182.001 243.237 182.088 242.689 182.088C241.667 181.889 240.633 181.787 239.597 181.784C238.566 181.943 237.549 182.205 236.558 182.565C235.563 182.918 234.601 183.38 233.683 183.945C232.759 184.501 231.884 185.161 231.072 185.916C230.696 186.28 230.359 186.705 230.013 187.105C229.886 187.252 229.781 187.608 229.616 187.695C229.451 187.782 229.06 188.094 228.865 188.086C227.81 187.912 226.777 187.591 225.788 187.131C224.34 186.696 222.922 186.133 221.548 185.447C221.353 185.343 220.363 184.961 219.605 186.506C219.343 187.363 219.182 188.256 219.124 189.162C218.974 190.143 218.501 191.037 218.276 191.991C218.051 192.946 217.916 193.927 217.668 194.882C217.46 195.873 217.174 196.841 216.813 197.772C216.348 198.641 215.71 199.367 214.952 199.89C214.696 200.161 214.401 200.378 214.081 200.533C213.676 200.671 213.766 200.654 213.646 200.168C213.285 198.937 213.021 197.67 212.858 196.384C212.745 195.073 212.738 193.78 212.708 192.434C212.678 191.089 212.61 189.83 212.633 188.476C212.633 187.825 212.573 187.165 212.633 186.514C212.633 186.219 212.94 185.942 213.046 185.646C213.155 185.345 213.285 185.055 213.436 184.778C214.089 183.676 214.614 182.47 215.244 181.307C215.74 180.439 216.505 179.753 216.993 178.859C217.481 177.965 217.826 176.984 218.291 176.081C218.757 175.179 218.997 174.128 219.447 173.217C219.897 172.305 220.355 171.403 220.783 170.483C221.211 169.563 221.961 168.825 222.381 167.879C222.802 166.933 223.132 165.96 223.567 165.006C224.002 164.051 224.46 163.131 224.835 162.159C225.211 161.187 225.586 160.197 225.901 159.216C226.216 158.235 226.569 157.22 226.862 156.213C227.154 155.206 227.267 154.121 227.499 153.097C227.761 152.04 227.964 150.964 228.107 149.877C228.165 148.782 228.11 147.684 227.942 146.604C227.912 145.514 227.654 144.448 227.192 143.497C226.637 142.612 225.846 141.963 224.94 141.648C224.028 141.157 223.025 140.939 222.021 141.014C221.044 141.289 220.12 141.771 219.297 142.438C218.391 142.965 217.571 143.67 216.873 144.521C216.206 145.413 215.621 146.382 215.124 147.412C214.667 148.28 214.029 149.147 213.623 150.076C213.218 151.005 212.963 152.047 212.648 153.027C212.333 154.008 212.288 155.102 212.025 156.1C211.762 157.098 211.207 158.018 210.982 159.034C210.757 160.049 210.832 161.152 210.637 162.176C210.441 163.2 209.939 164.259 209.758 165.344C209.578 166.429 209.623 167.558 209.466 168.643C209.308 169.728 209.076 170.813 208.94 171.898C208.805 172.982 208.505 174.067 208.393 175.161C208.28 176.255 208.513 177.392 208.393 178.494C208.28 179.848 207.927 181.176 207.845 182.539C207.882 182.859 207.905 183.18 207.912 183.503C207.867 183.841 207.912 184.154 207.747 184.431C207.395 184.995 206.997 185.508 206.622 186.063C205.939 187.131 205.038 187.999 204.325 189.04C203.612 190.082 202.914 191.115 202.164 192.113C201.413 193.111 200.941 194.344 200.168 195.281C199.395 196.219 198.396 196.844 197.586 197.712C196.826 198.58 196.011 199.38 195.147 200.107C194.394 200.733 193.521 201.139 192.603 201.288C191.852 201.366 191.485 200.281 191.342 199.595C191.206 198.811 191.125 198.016 191.102 197.217C191.042 196.201 190.959 195.194 190.982 194.179C191.004 193.163 190.982 192.156 191.049 191.15C191.049 190.854 191.575 190.282 191.492 189.969C191.485 189.44 191.36 188.922 191.128 188.466C190.897 188.01 190.567 187.63 190.171 187.365C189.415 186.711 188.521 186.3 187.582 186.176C187.185 186.124 186.667 186.176 186.276 186.176C185.729 186.089 185.211 185.646 184.655 185.62C183.589 185.561 182.52 185.602 181.458 185.742C180.42 185.964 179.402 186.302 178.419 186.749C177.434 187.148 176.489 187.666 175.597 188.294C174.678 188.739 173.796 189.283 172.963 189.917C172.274 190.748 171.654 191.652 171.11 192.616C170.416 193.442 169.791 194.34 169.241 195.299C168.881 196.371 168.612 197.481 168.438 198.614C168.031 199.685 167.777 200.826 167.688 201.991C167.849 203.14 168.242 204.228 168.836 205.168C169.293 206.178 169.994 207.014 170.854 207.572C171.743 208.075 172.724 208.322 173.714 208.292C174.719 208.328 175.721 208.163 176.678 207.806C177.686 207.559 178.665 207.177 179.597 206.669C180.424 205.956 181.202 205.17 181.924 204.317C182.727 203.536 183.702 202.972 184.385 202.156C185.068 201.34 185.661 200.125 186.359 199.161C186.511 200.57 186.822 201.95 187.282 203.267C187.748 204.296 188.413 205.188 189.226 205.871C190.006 206.628 190.956 207.115 191.965 207.277C192.984 207.266 193.991 207.012 194.922 206.53C195.88 206.176 196.802 205.698 197.669 205.107C198.592 204.335 199.467 203.488 200.288 202.572C201.151 201.704 201.984 200.836 202.787 199.908C203.387 199.213 203.875 198.406 204.445 197.686C205.016 196.965 205.691 196.34 206.239 195.594C206.787 194.847 207.297 194.3 207.83 193.537C207.83 194.535 208.145 195.351 208.213 196.366C208.28 197.382 208.213 198.397 208.325 199.395C208.529 200.373 208.798 201.33 209.128 202.26C209.367 203.2 209.774 204.072 210.321 204.82C210.833 205.654 211.601 206.228 212.468 206.426C213.479 206.507 214.496 206.381 215.47 206.053C216.453 205.751 217.377 205.235 218.194 204.534C219.051 203.652 219.774 202.611 220.333 201.453C220.908 200.325 221.376 199.129 221.728 197.885C222.208 196.773 222.595 195.61 222.884 194.413C223.012 193.545 222.779 192.677 222.884 191.809C222.935 191.559 222.958 191.302 222.952 191.045C222.899 190.663 223.042 190.967 223.357 190.959C224.775 191.245 226.224 191.245 227.642 190.959C227.088 192.088 226.657 193.292 226.359 194.543C225.948 195.818 225.739 197.167 225.743 198.527C225.877 199.902 226.354 201.203 227.117 202.268C227.75 203.176 228.586 203.866 229.533 204.265C230.474 204.658 231.479 204.806 232.475 204.699C233.459 204.557 234.423 204.265 235.342 203.831C236.246 203.385 237.106 202.829 237.908 202.173C238.861 201.41 239.757 200.557 240.588 199.621C241.525 198.735 242.419 197.79 243.267 196.791C243.379 198.345 243.499 200.211 244.287 201.513C244.73 202.215 245.331 202.762 246.025 203.095C246.718 203.429 247.477 203.536 248.22 203.406C249.048 203.188 249.83 202.778 250.516 202.199C251.249 201.72 251.927 201.137 252.535 200.463C253.133 199.841 253.694 199.175 254.216 198.467C255.076 199.816 256.224 200.884 257.548 201.565C258.768 202.31 260.154 202.612 261.525 202.433C262.462 202.308 263.376 202.015 264.235 201.565C265.07 201.068 265.851 200.456 266.561 199.743C267.266 199.066 267.627 197.955 268.227 197.139C268.905 196.372 269.546 195.564 270.148 194.717C269.998 196.227 269.796 197.79 269.615 199.291C269.525 200.003 269.615 200.75 269.548 201.461C269.503 201.765 269.113 202.112 269 202.381C268.845 202.669 268.609 202.886 268.332 202.998C267.409 203.432 266.591 204.065 265.713 204.551C264.835 205.037 263.867 205.333 263.004 205.923C262.141 206.513 261.503 207.242 260.692 207.858C259.882 208.475 259.116 209.091 258.358 209.751C257.601 210.41 256.7 210.888 255.972 211.599C255.244 212.311 254.666 213.335 253.953 214.082C253.24 214.828 252.452 215.514 251.754 216.347C251.056 217.181 250.539 218.127 249.916 218.995C249.293 219.863 248.55 220.644 247.98 221.555C247.409 222.467 246.996 223.526 246.479 224.489C245.961 225.453 245.353 226.347 244.895 227.345C244.437 228.343 244.002 229.367 243.604 230.409C243.207 231.45 242.951 232.544 242.621 233.612C242.291 234.679 241.766 235.677 241.511 236.771C241.255 237.865 241.308 239.037 241.128 240.156C240.959 241.268 240.839 242.389 240.768 243.515C240.614 244.636 240.517 245.767 240.475 246.901C240.615 248.027 240.824 249.141 241.098 250.234C241.263 251.345 241.098 252.569 241.421 253.636C241.873 254.842 242.464 255.971 243.177 256.995C243.769 258.118 244.55 259.092 245.473 259.86C246.477 260.5 247.599 260.857 248.745 260.901C249.884 261.095 251.046 261.003 252.152 260.632C253.197 260.159 254.184 259.529 255.086 258.757C255.922 257.913 256.689 256.98 257.375 255.971C258.23 255.147 259.039 254.263 259.799 253.324C260.475 252.273 260.865 251.015 261.435 249.965C262.006 248.914 262.434 248.064 262.899 247.083C263.364 246.102 263.994 245.225 264.4 244.227C264.805 243.229 265.098 242.135 265.48 241.111C265.863 240.087 266.171 239.037 266.516 237.995C266.861 236.953 267.266 235.929 267.574 234.879C267.882 233.829 268.205 232.639 268.512 231.52C268.82 230.4 269.038 229.246 269.323 228.117C269.608 226.989 269.751 225.808 270.013 224.645C270.276 223.482 270.764 222.441 271.011 221.304C271.259 220.166 271.281 218.951 271.499 217.832C271.694 216.851 272.122 215.939 272.302 214.959C272.482 213.978 272.7 213.006 272.865 212.025C273.03 211.044 273.083 210.037 273.24 209.047C273.345 208.353 273.353 207.633 273.458 206.93C273.51 206.582 273.585 206.235 273.63 205.888C273.646 205.686 273.674 205.486 273.713 205.289C273.811 205.011 273.931 205.098 274.178 204.916C275.094 204.274 275.972 203.57 276.872 202.902C277.319 202.602 277.743 202.259 278.141 201.878C278.042 201.849 277.942 201.828 277.841 201.817C278.779 201.071 279.807 200.472 280.685 199.63C281.367 200.652 282.263 201.456 283.289 201.965C284.294 202.548 285.406 202.846 286.531 202.833C287.65 202.706 288.738 202.332 289.735 201.73C290.828 201.239 291.854 200.57 292.782 199.743C293.653 198.831 294.424 197.799 295.079 196.67C295.648 195.494 296.087 194.24 296.384 192.938C296.692 191.967 296.906 190.96 297.022 189.934C297.188 188.925 297.246 187.896 297.195 186.87C298.081 187.035 298.944 186.922 299.837 187.018C300.662 187.173 301.493 187.277 302.328 187.33C303.161 187.33 303.979 187.044 304.82 186.957C305.78 186.862 306.733 186.81 307.686 186.619C308.64 186.428 309.593 186.28 310.531 186.046C311.469 185.811 312.377 185.777 313.255 185.473C313.623 185.343 314.215 184.805 314.531 184.77C315.969 184.309 317.349 183.632 318.636 182.756C319.01 182.403 319.273 181.919 319.386 181.376C319.439 180.881 318.741 180.925 318.471 180.951ZM214.351 170.101C214.509 168.92 214.569 167.722 214.764 166.551C214.959 165.379 215.087 164.19 215.319 163.027C215.552 161.864 215.702 160.726 215.965 159.555C216.227 158.383 216.625 157.333 216.948 156.23C217.271 155.128 217.811 154.112 218.209 153.045C218.534 151.834 218.943 150.655 219.432 149.521C220.024 148.622 220.797 147.904 221.683 147.429C222.014 147.221 222.832 146.561 223.057 146.969C223.282 147.377 223.109 148.054 223.057 148.444C223.079 149.122 223.064 149.8 223.012 150.476C222.817 151.534 222.636 152.619 222.351 153.661C222.066 154.703 221.563 155.649 221.218 156.664C220.873 157.68 220.423 158.626 220.032 159.615C219.642 160.605 219.229 161.586 218.809 162.558C218.389 163.53 217.954 164.502 217.526 165.457C217.098 166.412 216.993 167.445 216.565 168.347C216.137 169.25 215.417 169.945 214.982 170.839C214.546 171.733 214.321 172.575 213.864 173.443C214.006 172.34 214.156 171.281 214.351 170.101ZM184.55 192.243C183.935 193.25 183.56 194.474 182.907 195.455C182.254 196.436 181.241 197.069 180.498 197.963C179.783 198.869 179.005 199.705 178.171 200.463C177.266 201.234 176.28 201.869 175.237 202.355C173.894 202.954 172.648 203.223 172.746 201.487C172.789 200.479 172.99 199.488 173.338 198.562C173.768 197.69 174.293 196.884 174.899 196.167C175.464 195.426 176.104 194.768 176.806 194.205C177.577 193.532 178.429 192.991 179.335 192.599C180.241 192.201 181.186 191.935 182.149 191.809C183.135 191.554 184.141 191.417 185.151 191.401C184.978 191.636 184.693 191.974 184.55 192.243ZM241.586 189.952C241.083 190.75 240.61 191.566 240.085 192.33C239.475 193.374 238.811 194.374 238.096 195.325C237.308 196.193 236.205 196.592 235.297 197.26C234.553 197.811 233.754 198.254 232.918 198.58C231.867 198.97 231.079 199.161 230.989 197.963C230.923 196.49 231.225 195.025 231.86 193.745C232.343 192.725 232.947 191.787 233.653 190.959C234.42 190.212 235.271 189.59 236.182 189.11C237.246 188.486 238.392 188.075 239.574 187.895C240.705 187.655 241.859 187.594 243.004 187.712C242.591 188.589 242.088 189.153 241.586 189.952ZM267.439 188.789C266.864 189.987 266.23 191.146 265.54 192.261C265.018 193.288 264.397 194.243 263.687 195.108C262.869 195.83 261.901 196.291 260.88 196.444C259.927 196.67 259.222 196.444 258.546 195.09C257.796 193.502 258.396 191.801 259.244 190.446C259.688 189.606 260.234 188.843 260.865 188.181C261.539 187.56 262.269 187.025 263.041 186.584C264.037 186.149 265.072 185.844 266.126 185.673C267.113 185.432 268.119 185.304 269.128 185.291C268.565 186.558 268.009 187.599 267.439 188.789ZM267.889 212.485C267.694 213.657 267.267 214.768 267.049 215.957C266.831 217.146 266.674 218.292 266.441 219.429C266.208 220.566 265.728 221.668 265.465 222.814C265.203 223.96 265.323 225.227 265.038 226.373C264.752 227.518 264.4 228.629 264.085 229.766C263.769 230.903 263.439 232.023 263.101 233.143C262.764 234.263 262.178 235.226 261.818 236.302C261.458 237.379 261.068 238.455 260.662 239.514C260.257 240.573 260.152 241.71 259.724 242.743C259.297 243.776 258.471 244.479 257.991 245.512C257.51 246.545 257.053 247.473 256.49 248.402C255.944 249.328 255.35 250.215 254.711 251.058C254.129 251.962 253.484 252.81 252.783 253.593C251.955 254.512 250.936 255.169 249.826 255.502C248.753 255.702 247.912 254.886 247.282 253.914C246.613 252.767 246.172 251.462 245.991 250.095C245.762 248.734 245.656 247.349 245.676 245.963C245.678 244.77 245.748 243.578 245.886 242.396C245.905 241.191 245.985 239.988 246.126 238.794C246.485 237.659 246.893 236.547 247.349 235.46C247.694 234.341 248.04 233.221 248.482 232.127C248.925 231.034 249.39 229.983 249.916 228.951C250.441 227.918 250.899 226.833 251.492 225.843C252.085 224.854 252.64 223.838 253.293 222.909C253.946 221.981 254.576 220.991 255.289 220.123C256.002 219.255 256.828 218.483 257.586 217.675C258.343 216.868 259.237 215.757 260.145 214.915C261.053 214.073 262.133 213.483 263.101 212.728C263.942 212.068 264.835 211.495 265.698 210.879C266.561 210.263 267.379 209.62 268.242 208.995C268.047 210.15 268.069 211.322 267.867 212.467L267.889 212.485ZM292.084 190.169C291.966 191.199 291.713 192.203 291.334 193.146C290.861 194.014 289.953 194.491 289.293 195.168C288.734 195.791 288.093 196.307 287.394 196.696C287.073 196.92 286.706 197.038 286.332 197.038C285.958 197.038 285.591 196.92 285.27 196.696C284.521 196.152 283.983 195.293 283.769 194.3C283.502 193.311 283.451 192.26 283.621 191.242C283.792 190.224 284.178 189.27 284.745 188.467C285.214 187.634 285.812 186.907 286.508 186.324C287.22 185.663 288.047 185.189 288.932 184.935C289.338 184.817 289.753 184.75 290.171 184.735C290.546 184.735 291.597 184.874 291.739 185.204C291.909 185.797 292.03 186.407 292.099 187.027C292.314 188.061 292.301 189.141 292.062 190.169H292.084Z" fill="#303030"/>
</svg>
