<svg width="400" height="400" viewBox="0 0 400 400" fill="none" xmlns="http://www.w3.org/2000/svg">
<rect width="400" height="400" fill="#EF233C"/>
<g clip-path="url(#clip0_111_21)">
<path d="M286.477 91.987C286.477 135.935 240.341 219.468 197.5 219.468C154.659 219.468 108.523 135.935 108.523 91.987C108.523 48.039 154.659 39 197.5 39C240.341 39 286.477 48.039 286.477 91.987Z" fill="#2B2D42"/>
<path d="M286.477 103.52C286.477 147.468 240.341 231 197.5 231C154.659 231 108.523 147.468 108.523 103.52C108.523 59.5715 154.659 50.2208 197.5 50.2208C240.341 50.2208 286.477 59.5715 286.477 103.52Z" fill="#2B2D42"/>
<path d="M286.477 96.6624C286.477 140.61 240.341 224.143 197.5 224.143C154.659 224.143 108.523 140.61 108.523 96.6624C108.523 52.7143 154.659 43.3636 197.5 43.3636C240.341 43.3636 286.477 52.4026 286.477 96.6624Z" fill="#2B2D42"/>
<path d="M197.5 43.3636C240.341 43.3636 286.477 52.4026 286.477 96.6624C286.477 140.922 240.341 224.143 197.5 224.143" fill="#2B2D42"/>
<path d="M197.5 167.727C224.8 167.727 246.932 146.795 246.932 120.974C246.932 95.153 224.8 74.2208 197.5 74.2208C170.2 74.2208 148.068 95.153 148.068 120.974C148.068 146.795 170.2 167.727 197.5 167.727Z" fill="#2B2D42"/>
<path d="M197.5 74.2208C224.852 74.2208 246.932 95.1039 246.932 120.974C246.932 146.844 224.852 167.727 197.5 167.727" fill="#2B2D42"/>
<path d="M197.5 142.792C210.24 142.792 220.568 133.024 220.568 120.974C220.568 108.924 210.24 99.1559 197.5 99.1559C184.76 99.1559 174.432 108.924 174.432 120.974C174.432 133.024 184.76 142.792 197.5 142.792Z" fill="#2B2D42"/>
<path d="M197.5 99.1559C210.352 99.1559 220.568 108.818 220.568 120.974C220.568 133.13 210.352 142.792 197.5 142.792" fill="#2B2D42"/>
<g clip-path="url(#clip1_111_21)">
<path d="M199.705 86.2978C199.852 83.8359 201.419 81.8239 203.514 81.2117L203.52 80.7131C202.34 77.9904 201.621 74.4347 201.661 70.5033C201.701 66.5697 202.488 63.0269 203.719 60.326C203.719 60.326 203.727 59.5673 203.736 58.6289C203.745 57.6911 202.35 56.92 200.619 56.9055L190.433 56.815C188.703 56.7991 187.293 57.5383 187.284 58.4639L187.267 60.1415C188.455 62.8673 189.181 66.4399 189.142 70.3939C189.103 74.344 188.308 77.9035 187.066 80.6109L187.062 80.9568C189.328 81.4662 191.024 83.6196 191.128 86.2235L190.793 112.024C190.158 112.542 188.724 112.978 185.484 112.287C179.692 111.053 172.341 114.114 175.443 125.459C178.546 136.804 183.452 134.601 172.309 147.659L172.315 147.66C168.114 152.014 165.574 157.525 165.513 163.54C165.373 177.809 179.209 189.5 196.418 189.654C213.626 189.805 227.69 178.359 227.829 164.089C227.832 163.833 227.821 163.577 227.814 163.322L227.822 163.325C227.822 163.325 227.819 163.228 227.809 163.062C227.765 161.864 227.621 160.689 227.385 159.538C226.615 155.089 224.503 147.763 218.751 143.405C210.065 136.826 217.808 130.307 218.926 125.587C220.043 120.868 219.446 118.246 217.587 116.286C217.587 116.286 216.458 122.104 209.852 122.046C204.543 121.999 201.252 116.574 200.036 113.216L199.705 86.2978Z" fill="#EDF2F4"/>
</g>
</g>
<path d="M91.2727 310.391C91.0241 309.527 90.675 308.763 90.2251 308.1C89.7753 307.425 89.2249 306.857 88.5739 306.396C87.9347 305.922 87.2008 305.561 86.3722 305.312C85.5554 305.064 84.6499 304.94 83.6555 304.94C81.7971 304.94 80.1636 305.401 78.755 306.325C77.3582 307.248 76.2692 308.591 75.4879 310.355C74.7067 312.107 74.3161 314.25 74.3161 316.783C74.3161 319.316 74.7008 321.47 75.4702 323.246C76.2396 325.021 77.3286 326.377 78.7372 327.312C80.1458 328.235 81.8089 328.697 83.7266 328.697C85.4666 328.697 86.9522 328.389 88.1832 327.773C89.4261 327.146 90.3731 326.264 91.0241 325.128C91.687 323.991 92.0185 322.648 92.0185 321.097L93.581 321.328H84.206V315.54H99.4226V320.121C99.4226 323.317 98.7479 326.063 97.3984 328.359C96.049 330.644 94.1906 332.408 91.8232 333.651C89.4557 334.882 86.745 335.497 83.6911 335.497C80.282 335.497 77.2872 334.746 74.7067 333.242C72.1262 331.727 70.1139 329.579 68.6697 326.797C67.2375 324.003 66.5213 320.689 66.5213 316.854C66.5213 313.906 66.9474 311.278 67.7997 308.97C68.6638 306.65 69.8712 304.685 71.4219 303.075C72.9725 301.465 74.7777 300.24 76.8374 299.4C78.897 298.559 81.1283 298.139 83.5312 298.139C85.5909 298.139 87.5085 298.441 89.2841 299.045C91.0597 299.637 92.634 300.477 94.0071 301.566C95.392 302.655 96.5225 303.951 97.3984 305.455C98.2744 306.946 98.8366 308.591 99.0852 310.391H91.2727ZM122.545 323.388V307.727H130.109V335H122.847V330.046H122.563C121.947 331.644 120.923 332.929 119.491 333.899C118.07 334.87 116.336 335.355 114.289 335.355C112.466 335.355 110.862 334.941 109.477 334.112C108.092 333.284 107.009 332.106 106.227 330.579C105.458 329.052 105.067 327.223 105.056 325.092V307.727H112.619V323.743C112.631 325.353 113.063 326.625 113.916 327.56C114.768 328.496 115.91 328.963 117.343 328.963C118.254 328.963 119.106 328.756 119.899 328.342C120.692 327.915 121.332 327.288 121.817 326.46C122.314 325.631 122.557 324.607 122.545 323.388ZM136.159 335V307.727H143.723V335H136.159ZM139.959 304.212C138.834 304.212 137.87 303.839 137.065 303.093C136.272 302.335 135.875 301.43 135.875 300.376C135.875 299.335 136.272 298.441 137.065 297.695C137.87 296.938 138.834 296.559 139.959 296.559C141.083 296.559 142.042 296.938 142.835 297.695C143.64 298.441 144.043 299.335 144.043 300.376C144.043 301.43 143.64 302.335 142.835 303.093C142.042 303.839 141.083 304.212 139.959 304.212ZM164.289 307.727V313.409H147.865V307.727H164.289ZM151.593 301.193H159.157V326.619C159.157 327.318 159.264 327.862 159.477 328.253C159.69 328.632 159.986 328.898 160.365 329.052C160.755 329.206 161.205 329.283 161.714 329.283C162.069 329.283 162.424 329.253 162.779 329.194C163.134 329.123 163.407 329.07 163.596 329.034L164.786 334.663C164.407 334.781 163.874 334.917 163.188 335.071C162.501 335.237 161.667 335.337 160.684 335.373C158.861 335.444 157.263 335.201 155.89 334.645C154.529 334.089 153.469 333.224 152.712 332.053C151.954 330.881 151.581 329.401 151.593 327.614V301.193ZM176.993 335.515C175.253 335.515 173.702 335.213 172.341 334.609C170.979 333.994 169.902 333.088 169.109 331.893C168.328 330.685 167.937 329.182 167.937 327.383C167.937 325.868 168.215 324.595 168.772 323.565C169.328 322.536 170.086 321.707 171.045 321.08C172.003 320.452 173.092 319.979 174.312 319.659C175.543 319.339 176.833 319.115 178.182 318.984C179.769 318.819 181.047 318.665 182.018 318.523C182.988 318.369 183.693 318.144 184.131 317.848C184.568 317.552 184.787 317.114 184.787 316.534V316.428C184.787 315.303 184.432 314.433 183.722 313.817C183.024 313.202 182.029 312.894 180.739 312.894C179.378 312.894 178.295 313.196 177.49 313.8C176.685 314.392 176.152 315.137 175.892 316.037L168.896 315.469C169.251 313.812 169.95 312.379 170.991 311.172C172.033 309.953 173.376 309.018 175.022 308.366C176.679 307.704 178.597 307.372 180.775 307.372C182.29 307.372 183.74 307.55 185.125 307.905C186.522 308.26 187.759 308.81 188.836 309.556C189.925 310.302 190.783 311.261 191.41 312.433C192.038 313.593 192.351 314.983 192.351 316.605V335H185.178V331.218H184.965C184.527 332.07 183.941 332.822 183.207 333.473C182.473 334.112 181.591 334.615 180.562 334.982C179.532 335.337 178.342 335.515 176.993 335.515ZM179.159 330.295C180.272 330.295 181.254 330.076 182.106 329.638C182.959 329.188 183.627 328.584 184.113 327.827C184.598 327.069 184.841 326.211 184.841 325.252V322.358C184.604 322.512 184.278 322.654 183.864 322.784C183.462 322.902 183.006 323.015 182.497 323.121C181.988 323.216 181.479 323.305 180.97 323.388C180.461 323.459 179.999 323.524 179.585 323.583C178.697 323.713 177.922 323.92 177.259 324.205C176.596 324.489 176.081 324.873 175.714 325.359C175.347 325.832 175.164 326.424 175.164 327.134C175.164 328.164 175.537 328.951 176.282 329.496C177.04 330.028 177.999 330.295 179.159 330.295ZM198.22 335V307.727H205.553V312.486H205.837C206.334 310.793 207.169 309.515 208.34 308.651C209.512 307.775 210.862 307.337 212.389 307.337C212.767 307.337 213.176 307.36 213.614 307.408C214.052 307.455 214.436 307.52 214.768 307.603V314.315C214.413 314.208 213.922 314.113 213.294 314.031C212.667 313.948 212.093 313.906 211.572 313.906C210.459 313.906 209.465 314.149 208.589 314.634C207.725 315.108 207.038 315.771 206.529 316.623C206.032 317.475 205.784 318.458 205.784 319.57V335H198.22ZM230.393 335V298.636H244.74C247.498 298.636 249.847 299.163 251.789 300.217C253.73 301.258 255.209 302.708 256.227 304.567C257.257 306.413 257.772 308.544 257.772 310.959C257.772 313.374 257.251 315.504 256.21 317.351C255.168 319.197 253.659 320.636 251.682 321.665C249.717 322.695 247.338 323.21 244.544 323.21H235.4V317.049H243.301C244.781 317.049 246 316.795 246.959 316.286C247.93 315.765 248.652 315.049 249.125 314.137C249.61 313.214 249.853 312.154 249.853 310.959C249.853 309.751 249.61 308.698 249.125 307.798C248.652 306.887 247.93 306.183 246.959 305.685C245.988 305.176 244.757 304.922 243.266 304.922H238.081V335H230.393ZM262.624 335V307.727H270.188V335H262.624ZM266.424 304.212C265.299 304.212 264.334 303.839 263.529 303.093C262.736 302.335 262.34 301.43 262.34 300.376C262.34 299.335 262.736 298.441 263.529 297.695C264.334 296.938 265.299 296.559 266.424 296.559C267.548 296.559 268.507 296.938 269.3 297.695C270.105 298.441 270.507 299.335 270.507 300.376C270.507 301.43 270.105 302.335 269.3 303.093C268.507 303.839 267.548 304.212 266.424 304.212ZM288.569 335.533C285.776 335.533 283.373 334.941 281.361 333.757C279.36 332.562 277.821 330.904 276.744 328.786C275.679 326.667 275.146 324.228 275.146 321.47C275.146 318.677 275.685 316.226 276.762 314.119C277.851 312 279.396 310.349 281.396 309.165C283.397 307.97 285.776 307.372 288.534 307.372C290.913 307.372 292.997 307.804 294.784 308.668C296.571 309.532 297.986 310.746 299.028 312.308C300.069 313.871 300.643 315.705 300.75 317.812H293.612C293.411 316.451 292.878 315.356 292.014 314.528C291.162 313.687 290.043 313.267 288.658 313.267C287.486 313.267 286.462 313.587 285.586 314.226C284.722 314.853 284.048 315.771 283.562 316.978C283.077 318.185 282.834 319.647 282.834 321.364C282.834 323.104 283.071 324.583 283.545 325.803C284.03 327.022 284.711 327.951 285.586 328.59C286.462 329.229 287.486 329.549 288.658 329.549C289.522 329.549 290.298 329.371 290.984 329.016C291.683 328.661 292.257 328.146 292.706 327.472C293.168 326.785 293.47 325.962 293.612 325.004H300.75C300.631 327.087 300.063 328.922 299.045 330.508C298.039 332.082 296.648 333.313 294.873 334.201C293.097 335.089 290.996 335.533 288.569 335.533ZM312.446 327.152L312.464 318.079H313.565L322.301 307.727H330.983L319.247 321.435H317.453L312.446 327.152ZM305.593 335V298.636H313.157V335H305.593ZM322.638 335L314.613 323.121L319.655 317.777L331.498 335H322.638Z" fill="#EDF2F4"/>
<defs>
<clipPath id="clip0_111_21">
<rect width="203" height="192" fill="white" transform="translate(96 39)"/>
</clipPath>
<clipPath id="clip1_111_21">
<rect width="112.67" height="112.553" fill="white" transform="matrix(0.73288 -0.680358 0.720084 0.693887 114.125 125.942)"/>
</clipPath>
</defs>
</svg>
