<svg width="300" height="300" viewBox="0 0 300 300" fill="none" xmlns="http://www.w3.org/2000/svg">
<rect width="300" height="300" fill="white"/>
<path d="M104.716 163.041C102.436 163.041 100.431 162.684 98.6999 161.97C96.9691 161.255 95.623 160.335 94.6614 159.209L99.1532 155.335C100.032 156.132 101.021 156.722 102.12 157.107C103.247 157.492 104.236 157.684 105.087 157.684C105.389 157.684 105.664 157.656 105.911 157.601C106.159 157.546 106.351 157.464 106.488 157.354C106.653 157.217 106.777 157.079 106.859 156.942C106.969 156.777 107.024 156.599 107.024 156.406C107.024 155.939 106.791 155.582 106.324 155.335C106.076 155.225 105.664 155.088 105.087 154.923C104.538 154.731 103.796 154.524 102.862 154.305C101.708 154.003 100.678 153.645 99.7713 153.233C98.8647 152.794 98.0955 152.285 97.4636 151.709C96.8592 151.132 96.3785 150.472 96.0213 149.731C95.6917 148.961 95.5268 148.123 95.5268 147.217C95.5268 146.118 95.7741 145.143 96.2686 144.291C96.7631 143.439 97.4499 142.711 98.329 142.107C99.2081 141.475 100.197 141.008 101.296 140.706C102.395 140.376 103.521 140.211 104.675 140.211C105.966 140.211 107.175 140.349 108.302 140.623C109.455 140.871 110.527 141.242 111.516 141.736C112.532 142.203 113.439 142.78 114.236 143.467L110.28 147.835C109.813 147.423 109.263 147.038 108.631 146.681C108.027 146.324 107.395 146.035 106.736 145.816C106.076 145.568 105.458 145.445 104.881 145.445C104.524 145.445 104.222 145.472 103.975 145.527C103.727 145.582 103.521 145.665 103.357 145.774C103.192 145.884 103.068 146.022 102.986 146.187C102.903 146.351 102.862 146.53 102.862 146.722C102.862 146.97 102.931 147.203 103.068 147.423C103.205 147.643 103.425 147.821 103.727 147.959C103.975 148.096 104.387 148.274 104.964 148.494C105.568 148.687 106.433 148.934 107.56 149.236C108.824 149.593 109.922 150.005 110.857 150.472C111.791 150.939 112.546 151.475 113.123 152.079C113.535 152.546 113.851 153.068 114.071 153.645C114.291 154.195 114.4 154.813 114.4 155.5C114.4 156.956 113.975 158.261 113.123 159.415C112.299 160.541 111.159 161.434 109.703 162.093C108.247 162.725 106.585 163.041 104.716 163.041Z" fill="black"/>
<path d="M120.291 172.107L125.566 159.662L125.649 163.041L115.223 140.665H123.794L127.462 149.401C127.764 150.088 128.025 150.774 128.245 151.461C128.492 152.121 128.671 152.753 128.78 153.357L127.915 154.016C128.025 153.659 128.19 153.165 128.41 152.533C128.629 151.901 128.877 151.173 129.151 150.349L132.489 140.665H141.102L131.583 162.629L127.75 172.107H120.291Z" fill="black"/>
<path d="M144.18 162.629V140.665H151.35L151.68 145.115L150.114 145.61C150.389 144.566 150.924 143.645 151.721 142.849C152.518 142.024 153.466 141.379 154.565 140.912C155.663 140.445 156.817 140.211 158.026 140.211C159.674 140.211 161.062 140.555 162.188 141.242C163.342 141.901 164.207 142.904 164.784 144.25C165.389 145.568 165.691 147.189 165.691 149.112V162.629H158.026V149.731C158.026 149.016 157.916 148.426 157.696 147.959C157.477 147.464 157.147 147.093 156.707 146.846C156.268 146.599 155.746 146.489 155.142 146.516C154.674 146.516 154.235 146.585 153.823 146.722C153.438 146.86 153.095 147.079 152.793 147.382C152.49 147.656 152.257 147.972 152.092 148.329C151.955 148.687 151.886 149.085 151.886 149.524V162.629H148.054C147.12 162.629 146.323 162.629 145.663 162.629C145.032 162.629 144.537 162.629 144.18 162.629Z" fill="black"/>
<path d="M181.693 163.041C179.358 163.041 177.27 162.546 175.429 161.557C173.589 160.568 172.146 159.222 171.103 157.519C170.059 155.816 169.537 153.851 169.537 151.626C169.537 149.401 170.059 147.437 171.103 145.733C172.146 144.03 173.589 142.684 175.429 141.695C177.27 140.706 179.358 140.211 181.693 140.211C184.028 140.211 186.103 140.706 187.916 141.695C189.756 142.684 191.199 144.03 192.243 145.733C193.287 147.437 193.809 149.401 193.809 151.626C193.809 153.851 193.287 155.816 192.243 157.519C191.199 159.222 189.756 160.568 187.916 161.557C186.103 162.546 184.028 163.041 181.693 163.041ZM181.693 156.571C182.517 156.571 183.259 156.365 183.918 155.953C184.605 155.514 185.127 154.923 185.484 154.181C185.869 153.412 186.061 152.56 186.061 151.626C186.061 150.637 185.869 149.772 185.484 149.03C185.127 148.288 184.605 147.711 183.918 147.299C183.259 146.86 182.517 146.64 181.693 146.64C180.842 146.64 180.086 146.86 179.427 147.299C178.767 147.711 178.245 148.302 177.861 149.071C177.476 149.813 177.284 150.665 177.284 151.626C177.284 152.56 177.476 153.412 177.861 154.181C178.245 154.923 178.767 155.514 179.427 155.953C180.086 156.365 180.842 156.571 181.693 156.571Z" fill="black"/>
<path d="M197.985 171.695V140.665H205.155L205.526 145.527L204.043 145.156C204.207 144.222 204.661 143.384 205.402 142.643C206.172 141.901 207.119 141.31 208.246 140.871C209.372 140.431 210.595 140.211 211.913 140.211C213.754 140.211 215.389 140.706 216.817 141.695C218.246 142.656 219.372 143.989 220.196 145.692C221.021 147.395 221.433 149.373 221.433 151.626C221.433 153.824 221.021 155.788 220.196 157.519C219.372 159.222 218.232 160.568 216.776 161.557C215.32 162.519 213.658 163 211.79 163C210.554 163 209.372 162.78 208.246 162.34C207.147 161.873 206.213 161.255 205.444 160.486C204.702 159.689 204.221 158.796 204.001 157.807L205.732 157.231V171.695H197.985ZM209.729 156.695C210.608 156.695 211.364 156.489 211.996 156.077C212.628 155.665 213.109 155.088 213.438 154.346C213.768 153.577 213.933 152.67 213.933 151.626C213.933 150.555 213.768 149.648 213.438 148.906C213.109 148.137 212.628 147.546 211.996 147.134C211.364 146.722 210.608 146.516 209.729 146.516C208.85 146.516 208.095 146.722 207.463 147.134C206.831 147.519 206.35 148.096 206.021 148.865C205.691 149.634 205.526 150.555 205.526 151.626C205.526 152.67 205.691 153.577 206.021 154.346C206.35 155.088 206.831 155.665 207.463 156.077C208.095 156.489 208.85 156.695 209.729 156.695Z" fill="black"/>
<path d="M233.132 163.041C230.852 163.041 228.846 162.684 227.115 161.97C225.385 161.255 224.038 160.335 223.077 159.209L227.569 155.335C228.448 156.132 229.437 156.722 230.536 157.107C231.662 157.492 232.651 157.684 233.503 157.684C233.805 157.684 234.08 157.656 234.327 157.601C234.574 157.546 234.766 157.464 234.904 157.354C235.069 157.217 235.192 157.079 235.275 156.942C235.385 156.777 235.439 156.599 235.439 156.406C235.439 155.939 235.206 155.582 234.739 155.335C234.492 155.225 234.08 155.088 233.503 154.923C232.953 154.731 232.211 154.524 231.277 154.305C230.124 154.003 229.093 153.645 228.187 153.233C227.28 152.794 226.511 152.285 225.879 151.709C225.275 151.132 224.794 150.472 224.437 149.731C224.107 148.961 223.942 148.123 223.942 147.217C223.942 146.118 224.189 145.143 224.684 144.291C225.179 143.439 225.865 142.711 226.744 142.107C227.624 141.475 228.613 141.008 229.711 140.706C230.81 140.376 231.937 140.211 233.091 140.211C234.382 140.211 235.591 140.349 236.717 140.623C237.871 140.871 238.942 141.242 239.931 141.736C240.948 142.203 241.854 142.78 242.651 143.467L238.695 147.835C238.228 147.423 237.679 147.038 237.047 146.681C236.442 146.324 235.81 146.035 235.151 145.816C234.492 145.568 233.874 145.445 233.297 145.445C232.939 145.445 232.637 145.472 232.39 145.527C232.143 145.582 231.937 145.665 231.772 145.774C231.607 145.884 231.483 146.022 231.401 146.187C231.319 146.351 231.277 146.53 231.277 146.722C231.277 146.97 231.346 147.203 231.483 147.423C231.621 147.643 231.841 147.821 232.143 147.959C232.39 148.096 232.802 148.274 233.379 148.494C233.983 148.687 234.849 148.934 235.975 149.236C237.239 149.593 238.338 150.005 239.272 150.472C240.206 150.939 240.961 151.475 241.538 152.079C241.951 152.546 242.266 153.068 242.486 153.645C242.706 154.195 242.816 154.813 242.816 155.5C242.816 156.956 242.39 158.261 241.538 159.415C240.714 160.541 239.574 161.434 238.118 162.093C236.662 162.725 235 163.041 233.132 163.041Z" fill="black"/>
<path d="M246.564 162.629V140.665H254.229V162.629H246.564ZM250.396 136.503C248.995 136.503 247.91 136.187 247.141 135.555C246.372 134.895 245.987 133.975 245.987 132.794C245.987 131.695 246.372 130.802 247.141 130.115C247.938 129.401 249.023 129.044 250.396 129.044C251.77 129.044 252.841 129.373 253.611 130.033C254.407 130.665 254.806 131.585 254.806 132.794C254.806 133.893 254.407 134.785 253.611 135.472C252.814 136.159 251.743 136.503 250.396 136.503Z" fill="black"/>
<path d="M273.345 162.629L269.719 156.489L266.875 152.492L258.469 140.665H267.535L270.914 146.351L274.005 150.596L282.37 162.629H273.345ZM258.139 162.629L267.081 149.813L271.12 154.593L267.164 162.629H258.139ZM273.18 153.522L269.183 148.742L273.057 140.665H282.081L273.18 153.522Z" fill="black"/>
<rect x="17" y="127" width="54.2221" height="46.7432" fill="white"/>
<rect x="61.4622" y="130.796" width="6.50666" height="6.50666" rx="2" fill="#212121"/>
<rect x="61.4622" y="141.64" width="6.50666" height="6.50666" rx="2" fill="#212121"/>
<rect x="61.4622" y="152.484" width="6.50666" height="6.50666" rx="2" fill="#212121"/>
<rect x="61.4622" y="163.329" width="6.50666" height="6.50666" rx="2" fill="#212121"/>
<rect x="20.2534" y="130.796" width="6.50666" height="6.50666" rx="2" fill="#212121"/>
<rect x="20.2534" y="141.64" width="15.7244" height="6.50666" rx="2" fill="#212121"/>
<rect x="20.2534" y="152.484" width="26.5689" height="6.50666" rx="2" fill="#212121"/>
<rect x="20.2534" y="163.329" width="34.7022" height="6.50666" rx="2" fill="#212121"/>
</svg>
